<?xml version="1.0" encoding="UTF-8" standalone="no"?>
<!-- Created with Inkscape (http://www.inkscape.org/) -->

<svg
   xmlns:dc="http://purl.org/dc/elements/1.1/"
   xmlns:cc="http://creativecommons.org/ns#"
   xmlns:rdf="http://www.w3.org/1999/02/22-rdf-syntax-ns#"
   xmlns:svg="http://www.w3.org/2000/svg"
   xmlns="http://www.w3.org/2000/svg"
   xmlns:sodipodi="http://sodipodi.sourceforge.net/DTD/sodipodi-0.dtd"
   xmlns:inkscape="http://www.inkscape.org/namespaces/inkscape"
   viewBox="0 0 404 404" width="100" height="100" 
   id="svg2"
   version="1.1"
   inkscape:version="0.48.2 r9819"
   sodipodi:docname="smiley_gossip.svg"
   inkscape:export-filename="/home/linus/рисунок-20.svg.png"
   inkscape:export-xdpi="90"
   inkscape:export-ydpi="90">
  <defs
     id="defs4">
    <inkscape:perspective
       sodipodi:type="inkscape:persp3d"
       inkscape:vp_x="0 : 526.18109 : 1"
       inkscape:vp_y="0 : 1000 : 0"
       inkscape:vp_z="744.09448 : 526.18109 : 1"
       inkscape:persp3d-origin="372.04724 : 350.78739 : 1"
       id="perspective10" />
    <inkscape:perspective
       id="perspective7175"
       inkscape:persp3d-origin="0.5 : 0.33333333 : 1"
       inkscape:vp_z="1 : 0.5 : 1"
       inkscape:vp_y="0 : 1000 : 0"
       inkscape:vp_x="0 : 0.5 : 1"
       sodipodi:type="inkscape:persp3d" />
    <inkscape:perspective
       id="perspective7188"
       inkscape:persp3d-origin="0.5 : 0.33333333 : 1"
       inkscape:vp_z="1 : 0.5 : 1"
       inkscape:vp_y="0 : 1000 : 0"
       inkscape:vp_x="0 : 0.5 : 1"
       sodipodi:type="inkscape:persp3d" />
    <inkscape:perspective
       id="perspective7198"
       inkscape:persp3d-origin="0.5 : 0.33333333 : 1"
       inkscape:vp_z="1 : 0.5 : 1"
       inkscape:vp_y="0 : 1000 : 0"
       inkscape:vp_x="0 : 0.5 : 1"
       sodipodi:type="inkscape:persp3d" />
    <inkscape:perspective
       id="perspective2859"
       inkscape:persp3d-origin="0.5 : 0.33333333 : 1"
       inkscape:vp_z="1 : 0.5 : 1"
       inkscape:vp_y="0 : 1000 : 0"
       inkscape:vp_x="0 : 0.5 : 1"
       sodipodi:type="inkscape:persp3d" />
    <inkscape:perspective
       id="perspective3725"
       inkscape:persp3d-origin="0.5 : 0.33333333 : 1"
       inkscape:vp_z="1 : 0.5 : 1"
       inkscape:vp_y="0 : 1000 : 0"
       inkscape:vp_x="0 : 0.5 : 1"
       sodipodi:type="inkscape:persp3d" />
    <inkscape:perspective
       id="perspective3785"
       inkscape:persp3d-origin="0.5 : 0.33333333 : 1"
       inkscape:vp_z="1 : 0.5 : 1"
       inkscape:vp_y="0 : 1000 : 0"
       inkscape:vp_x="0 : 0.5 : 1"
       sodipodi:type="inkscape:persp3d" />
    <inkscape:perspective
       id="perspective3876"
       inkscape:persp3d-origin="0.5 : 0.33333333 : 1"
       inkscape:vp_z="1 : 0.5 : 1"
       inkscape:vp_y="0 : 1000 : 0"
       inkscape:vp_x="0 : 0.5 : 1"
       sodipodi:type="inkscape:persp3d" />
    <inkscape:perspective
       id="perspective2921"
       inkscape:persp3d-origin="0.5 : 0.33333333 : 1"
       inkscape:vp_z="1 : 0.5 : 1"
       inkscape:vp_y="0 : 1000 : 0"
       inkscape:vp_x="0 : 0.5 : 1"
       sodipodi:type="inkscape:persp3d" />
    <inkscape:perspective
       id="perspective3029"
       inkscape:persp3d-origin="0.5 : 0.33333333 : 1"
       inkscape:vp_z="1 : 0.5 : 1"
       inkscape:vp_y="0 : 1000 : 0"
       inkscape:vp_x="0 : 0.5 : 1"
       sodipodi:type="inkscape:persp3d" />
  </defs>
  <sodipodi:namedview
     id="base"
     pagecolor="#ffffff"
     bordercolor="#666666"
     borderopacity="1.0"
     inkscape:pageopacity="0.0"
     inkscape:pageshadow="2"
     inkscape:zoom="0.10153155"
     inkscape:cx="-274.01137"
     inkscape:cy="-298.86288"
     inkscape:document-units="px"
     inkscape:current-layer="layer1"
     showgrid="false"
     inkscape:window-width="781"
     inkscape:window-height="701"
     inkscape:window-x="496"
     inkscape:window-y="-3"
     inkscape:window-maximized="0"
     showguides="true"
     inkscape:guide-bbox="true"
     inkscape:object-paths="false"
     fit-margin-top="0"
     fit-margin-left="0"
     fit-margin-right="0"
     fit-margin-bottom="0" />
  <metadata
     id="metadata7">
    <rdf:RDF>
      <cc:Work
         rdf:about="">
        <dc:format>image/svg+xml</dc:format>
        <dc:type
           rdf:resource="http://purl.org/dc/dcmitype/StillImage" />
        <dc:title></dc:title>
      </cc:Work>
    </rdf:RDF>
  </metadata>
  <g
     inkscape:label="Layer 1"
     inkscape:groupmode="layer"
     id="layer1"
     transform="translate(74.029464,-287.3815)">
    <g
       id="g3705"
       transform="translate(-558.57795,177.32299)">
      <path
         sodipodi:type="arc"
         style="fill:#000000;stroke:none"
         id="path2867"
         sodipodi:cx="391.43411"
         sodipodi:cy="459.90771"
         sodipodi:rx="198.49498"
         sodipodi:ry="191.4239"
         d="m 589.92909,459.90771 c 0,105.72051 -88.86923,191.42391 -198.49498,191.42391 -109.62575,0 -198.49498,-85.7034 -198.49498,-191.42391 0,-105.7205 88.86923,-191.4239 198.49498,-191.4239 109.62575,0 198.49498,85.7034 198.49498,191.4239 z"
         transform="matrix(1.0175668,0,0,1.0551551,288.22003,-173.23355)" />
      <path
         transform="matrix(0.92962894,0,0,0.96396884,323.32467,-132.33438)"
         d="m 589.92909,459.90771 c 0,105.72051 -88.86923,191.42391 -198.49498,191.42391 -109.62575,0 -198.49498,-85.7034 -198.49498,-191.42391 0,-105.7205 88.86923,-191.4239 198.49498,-191.4239 109.62575,0 198.49498,85.7034 198.49498,191.4239 z"
         sodipodi:ry="191.4239"
         sodipodi:rx="198.49498"
         sodipodi:cy="459.90771"
         sodipodi:cx="391.43411"
         id="path2869"
         style="fill:#ffde57;fill-opacity:1;stroke:none"
         sodipodi:type="arc" />
      <path
         style="fill:#000000;fill-opacity:1;stroke:none"
         d="m 628.00865,240.06687 c 52.47102,78.60404 -76.34585,151.98702 -91.25587,32.68125 l 91.25587,-32.68125 z"
         id="path2871"
         sodipodi:nodetypes="ccc"
         inkscape:connector-curvature="0" />
      <path
         id="path3697"
         d="m 572.65625,320.5625 c 0.99199,-0.38213 1.98318,-0.77805 2.875,-1.3125 1.08521,-0.65035 2.07789,-1.40473 3,-2.25 0.92211,-0.84527 1.75721,-1.77466 2.5,-2.78125 0.74279,-1.00659 1.39024,-2.08444 1.9375,-3.21875 0.54726,-1.13431 1.00823,-2.33409 1.34375,-3.5625 0.33552,-1.22841 0.54869,-2.49234 0.65625,-3.78125 0.10756,-1.28891 0.10537,-2.6217 -0.0312,-3.9375 -0.13662,-1.3158 -0.41549,-2.62842 -0.8125,-3.9375 -0.39701,-1.30908 -0.8879,-2.53448 -1.5,-3.6875 -0.6121,-1.15302 -1.32943,-2.23903 -2.125,-3.21875 -0.79557,-0.97972 -1.6776,-1.86705 -2.625,-2.65625 -0.9474,-0.7892 -1.96365,-1.48104 -3.03125,-2.0625 -1.0676,-0.58146 -2.18758,-1.04977 -3.34375,-1.40625 -1.15617,-0.35648 -2.34939,-0.60447 -3.5625,-0.71875 -1.21311,-0.11428 -2.44908,-0.0827 -3.6875,0.0625 -1.23842,0.14515 -2.48665,0.42194 -3.71875,0.84375 -1.2321,0.42181 -2.38354,0.97465 -3.46875,1.625 -1.08521,0.65035 -2.10914,1.40473 -3.03125,2.25 -0.92211,0.84527 -1.75721,1.77466 -2.5,2.78125 -0.12185,0.16513 -0.19573,0.3623 -0.3125,0.53125 5.33194,15.74246 12.96048,25.49755 21.4375,30.4375 z"
         style="fill:#000000;fill-opacity:1;stroke:none"
         inkscape:connector-curvature="0" />
      <path
         id="path2875"
         d="M 624.375,252.84375 547.96875,278.875 c 0.93441,4.09428 2.06957,7.76479 3.25,11.25 0.11677,-0.16895 0.19065,-0.36612 0.3125,-0.53125 0.74279,-1.00659 1.57789,-1.93598 2.5,-2.78125 0.92211,-0.84527 1.94604,-1.59965 3.03125,-2.25 1.08521,-0.65035 2.23665,-1.20319 3.46875,-1.625 1.2321,-0.42181 2.48033,-0.6986 3.71875,-0.84375 1.23842,-0.14515 2.47439,-0.17678 3.6875,-0.0625 1.21311,0.11428 2.40633,0.36227 3.5625,0.71875 1.15617,0.35648 2.27615,0.82479 3.34375,1.40625 1.0676,0.58146 2.08385,1.2733 3.03125,2.0625 0.9474,0.7892 1.82943,1.67653 2.625,2.65625 0.79557,0.97972 1.5129,2.06573 2.125,3.21875 0.6121,1.15302 1.10299,2.37842 1.5,3.6875 0.39701,1.30908 0.67588,2.6217 0.8125,3.9375 0.13662,1.3158 0.13881,2.64859 0.0312,3.9375 -0.10756,1.28891 -0.32073,2.55284 -0.65625,3.78125 -0.33552,1.22841 -0.79649,2.42819 -1.34375,3.5625 -0.54726,1.13431 -1.19471,2.21216 -1.9375,3.21875 -0.74279,1.00659 -1.57789,1.93598 -2.5,2.78125 -0.92211,0.84527 -1.91479,1.59965 -3,2.25 -0.89182,0.53445 -1.88301,0.93037 -2.875,1.3125 30.27481,17.64253 70.81499,-25.10387 51.71875,-67.71875 z"
         style="fill:#f9f9f9;fill-opacity:1;stroke:none"
         inkscape:connector-curvature="0" />
      <path
         style="fill:#000000;fill-opacity:1;stroke:none"
         d="m 814.05594,277.65144 c -14.17469,105.09225 -151.69669,51.31691 -104.67986,-37.5954 l 104.67986,37.5954 z"
         id="path2873"
         sodipodi:nodetypes="ccc"
         inkscape:connector-curvature="0" />
      <path
         id="path3694"
         d="m 737.375,320.40625 c 1.28587,-0.40984 2.51844,-0.91394 3.65625,-1.53125 1.1861,-0.64351 2.27341,-1.41361 3.28125,-2.25 1.00784,-0.83639 1.93815,-1.75398 2.75,-2.75 0.81185,-0.99602 1.52686,-2.06511 2.125,-3.1875 0.59814,-1.12239 1.07079,-2.2845 1.4375,-3.5 0.36671,-1.2155 0.60119,-2.47463 0.71875,-3.75 0.11756,-1.27537 0.11807,-2.57303 -0.0312,-3.875 -0.14932,-1.30197 -0.44109,-2.61092 -0.875,-3.90625 -0.43391,-1.29533 -0.98724,-2.51535 -1.65625,-3.65625 -0.66901,-1.1409 -1.44297,-2.21807 -2.3125,-3.1875 -0.86953,-0.96943 -1.83952,-1.84409 -2.875,-2.625 -1.03548,-0.78091 -2.14564,-1.4559 -3.3125,-2.03125 -1.16686,-0.57535 -2.39259,-1.05352 -3.65625,-1.40625 -1.26366,-0.35273 -2.5491,-0.57442 -3.875,-0.6875 -1.3259,-0.11308 -2.67769,-0.11238 -4.03125,0.0312 -1.35356,0.14363 -2.71585,0.42637 -4.0625,0.84375 -1.34665,0.41738 -2.6264,0.95024 -3.8125,1.59375 -1.1861,0.64351 -2.27341,1.41361 -3.28125,2.25 -1.00784,0.83639 -1.93815,1.75398 -2.75,2.75 -0.81185,0.99602 -1.52686,2.06511 -2.125,3.1875 -0.13946,0.26169 -0.2165,0.54506 -0.34375,0.8125 4.0788,13.13651 13.58558,22.12922 25.03125,26.875 z"
         style="fill:#000000;fill-opacity:1;stroke:none"
         inkscape:connector-curvature="0" />
      <path
         id="path2879"
         d="m 715.09375,253.53125 c -5.84773,15.96831 -6.06752,29.31533 -2.75,40 0.12725,-0.26744 0.20429,-0.55081 0.34375,-0.8125 0.59814,-1.12239 1.31315,-2.19148 2.125,-3.1875 0.81185,-0.99602 1.74216,-1.91361 2.75,-2.75 1.00784,-0.83639 2.09515,-1.60649 3.28125,-2.25 1.1861,-0.64351 2.46585,-1.17637 3.8125,-1.59375 1.34665,-0.41738 2.70894,-0.70012 4.0625,-0.84375 1.35356,-0.14363 2.70535,-0.14433 4.03125,-0.0312 1.3259,0.11308 2.61134,0.33477 3.875,0.6875 1.26366,0.35273 2.48939,0.8309 3.65625,1.40625 1.16686,0.57535 2.27702,1.25034 3.3125,2.03125 1.03548,0.78091 2.00547,1.65557 2.875,2.625 0.86953,0.96943 1.64349,2.0466 2.3125,3.1875 0.66901,1.1409 1.22234,2.36092 1.65625,3.65625 0.43391,1.29533 0.72568,2.60428 0.875,3.90625 0.14932,1.30197 0.14881,2.59963 0.0312,3.875 -0.11756,1.27537 -0.35204,2.5345 -0.71875,3.75 -0.36671,1.2155 -0.83936,2.37761 -1.4375,3.5 -0.59814,1.12239 -1.31315,2.19148 -2.125,3.1875 -0.81185,0.99602 -1.74216,1.91361 -2.75,2.75 -1.00784,0.83639 -2.09515,1.60649 -3.28125,2.25 -1.13781,0.61731 -2.37038,1.12141 -3.65625,1.53125 25.68473,10.6498 60.87986,-0.28788 65.21875,-35.53125 l -87.5,-31.34375 z"
         style="fill:#f9f9f9;fill-opacity:1;stroke:none"
         inkscape:connector-curvature="0" />
      <path
         sodipodi:nodetypes="ccc"
         id="path3701"
         d="m 625.78125,446.89343 116.01563,0.78125 C 741.03397,368.6799 630.79336,350.53619 625.78125,446.89343 z"
         style="fill:#000000;fill-opacity:1;stroke:none"
         inkscape:connector-curvature="0" />
      <path
         style="fill:#871944;fill-opacity:1;stroke:none"
         d="m 636.59072,438.28249 93.61544,0.53584 c -0.61561,-54.18143 -89.57106,-66.62597 -93.61544,-0.53584 z"
         id="path3703"
         sodipodi:nodetypes="ccc"
         inkscape:connector-curvature="0" />
    </g>
  </g>
</svg>
